<svg width="256" height="256" viewBox="0 0 256 256" fill="none" xmlns="http://www.w3.org/2000/svg">
  <rect x="20" y="20" width="216" height="216" rx="58" fill="url(#base)"/>
  <rect x="21" y="21" width="214" height="214" rx="57" fill="url(#glass)" fill-opacity=".72"/>
  <path d="M70 76l26 104c2.2 8.8 14.5 9.4 17.5.9L128 139l14.5 41.9c3 8.5 15.3 7.9 17.5-.9l26-104h-30l-10.6 52.7-10.8-30.2c-2.2-6.2-10.9-6.2-13.2 0l-10.8 30.2L100 76H70Z" fill="white"/>
  <path d="M98 181c2.2 8.4 14.2 9 17.1.8L128 144l12.9 37.8c2.9 8.2 14.9 7.6 17.1-.8l9.1-36.4c-12.5 13.3-25.6 20-39.1 20s-26.6-6.7-39.1-20L98 181Z" fill="url(#accent)" fill-opacity=".82"/>
  <defs>
    <linearGradient id="base" x1="42" y1="30" x2="218" y2="225" gradientUnits="userSpaceOnUse">
      <stop stop-color="#22D3EE"/><stop offset=".48" stop-color="#2563EB"/><stop offset="1" stop-color="#A855F7"/>
    </linearGradient>
    <radialGradient id="glass" cx="0" cy="0" r="1" gradientUnits="userSpaceOnUse" gradientTransform="translate(78 54) rotate(50) scale(176)">
      <stop stop-color="white" stop-opacity=".9"/><stop offset=".52" stop-color="white" stop-opacity=".14"/><stop offset="1" stop-color="white" stop-opacity="0"/>
    </radialGradient>
    <linearGradient id="accent" x1="94" y1="143" x2="160" y2="185" gradientUnits="userSpaceOnUse">
      <stop stop-color="#67E8F9"/><stop offset="1" stop-color="#F0ABFC"/>
    </linearGradient>
  </defs>
</svg>
