<svg width="256" height="256" viewBox="0 0 256 256" fill="none" xmlns="http://www.w3.org/2000/svg">
  <rect x="20" y="20" width="216" height="216" rx="56" fill="url(#base)"/>
  <rect x="20" y="20" width="216" height="216" rx="56" fill="url(#shine)" fill-opacity=".72"/>
  <path d="M82 69c0-12.7 10.3-23 23-23h46c12.7 0 23 10.3 23 23v118c0 12.7-10.3 23-23 23h-46c-12.7 0-23-10.3-23-23V69Z" fill="white" fill-opacity=".82"/>
  <path d="M99 78c0-7.2 5.8-13 13-13h32c7.2 0 13 5.8 13 13v96c0 7.2-5.8 13-13 13h-32c-7.2 0-13-5.8-13-13V78Z" fill="#0F172A"/>
  <path d="M111 99h34M111 128h34M111 157h20" stroke="url(#lines)" stroke-width="11" stroke-linecap="round"/>
  <path d="M61 121c-11.6 0-21 9.4-21 21s9.4 21 21 21h21v-18H61a3 3 0 1 1 0-6h21v-18H61Zm134 0h-21v18h21a3 3 0 1 1 0 6h-21v18h21c11.6 0 21-9.4 21-21s-9.4-21-21-21Z" fill="white" fill-opacity=".88"/>
  <circle cx="128" cy="201" r="7" fill="#38BDF8"/>
  <defs>
    <linearGradient id="base" x1="39" y1="32" x2="214" y2="225" gradientUnits="userSpaceOnUse">
      <stop stop-color="#38BDF8"/>
      <stop offset=".48" stop-color="#2563EB"/>
      <stop offset="1" stop-color="#D946EF"/>
    </linearGradient>
    <radialGradient id="shine" cx="0" cy="0" r="1" gradientUnits="userSpaceOnUse" gradientTransform="translate(82 58) rotate(52) scale(174)">
      <stop stop-color="white" stop-opacity=".92"/>
      <stop offset=".5" stop-color="white" stop-opacity=".16"/>
      <stop offset="1" stop-color="white" stop-opacity="0"/>
    </radialGradient>
    <linearGradient id="lines" x1="111" y1="97" x2="146" y2="164" gradientUnits="userSpaceOnUse">
      <stop stop-color="#38BDF8"/>
      <stop offset="1" stop-color="#D946EF"/>
    </linearGradient>
  </defs>
</svg>
