<svg width="360" height="720" viewBox="0 0 360 720" fill="none" xmlns="http://www.w3.org/2000/svg">
  <rect width="360" height="720" rx="44" fill="#0F172A"/>
  <rect x="18" y="20" width="324" height="680" rx="36" fill="#F0FDFA"/>
  <rect x="46" y="58" width="268" height="34" rx="17" fill="#CCFBF1"/>
  <rect x="46" y="122" width="180" height="18" rx="9" fill="#134E4A"/>
  <rect x="46" y="164" width="268" height="60" rx="18" fill="#CCFBF1"/>
  <rect x="66" y="184" width="138" height="15" rx="7.5" fill="#0F766E"/>
  <rect x="46" y="246" width="268" height="60" rx="18" fill="#DCFCE7"/>
  <rect x="66" y="266" width="178" height="15" rx="7.5" fill="#15803D"/>
  <rect x="46" y="328" width="268" height="82" rx="22" fill="#99F6E4"/>
  <rect x="66" y="352" width="154" height="16" rx="8" fill="#115E59"/>
  <rect x="246" y="352" width="48" height="26" rx="13" fill="#14B8A6"/>
  <circle cx="281" cy="365" r="17" fill="#FFFFFF"/>
  <rect x="66" y="382" width="118" height="12" rx="6" fill="#0D9488"/>
  <rect x="46" y="432" width="268" height="60" rx="18" fill="#DCFCE7"/>
  <rect x="66" y="452" width="150" height="15" rx="7.5" fill="#15803D"/>
  <circle cx="180" cy="574" r="56" fill="#14B8A6"/>
  <path d="M158 576L174 592L204 554" stroke="white" stroke-width="10" stroke-linecap="round" stroke-linejoin="round"/>
</svg>
