<svg width="360" height="720" viewBox="0 0 360 720" fill="none" xmlns="http://www.w3.org/2000/svg">
  <rect width="360" height="720" rx="44" fill="#0F172A"/>
  <rect x="18" y="20" width="324" height="680" rx="36" fill="#F8FAFC"/>
  <rect x="46" y="58" width="268" height="38" rx="19" fill="#E0F2FE"/>
  <rect x="46" y="118" width="190" height="18" rx="9" fill="#0F172A"/>
  <rect x="46" y="156" width="268" height="58" rx="16" fill="#E2E8F0"/>
  <rect x="66" y="176" width="130" height="15" rx="7.5" fill="#64748B"/>
  <rect x="46" y="230" width="268" height="58" rx="16" fill="#E2E8F0"/>
  <rect x="66" y="250" width="172" height="15" rx="7.5" fill="#64748B"/>
  <rect x="46" y="304" width="268" height="72" rx="18" fill="#BAE6FD"/>
  <rect x="64" y="326" width="156" height="16" rx="8" fill="#0369A1"/>
  <rect x="250" y="326" width="44" height="24" rx="12" fill="#0EA5E9"/>
  <circle cx="281" cy="338" r="16" fill="#FFFFFF"/>
  <rect x="46" y="394" width="268" height="58" rx="16" fill="#E2E8F0"/>
  <rect x="66" y="414" width="150" height="15" rx="7.5" fill="#64748B"/>
  <path d="M46 532C46 498.863 72.8629 472 106 472H254C287.137 472 314 498.863 314 532V556C314 589.137 287.137 616 254 616H106C72.8629 616 46 589.137 46 556V532Z" fill="#DCFCE7"/>
  <circle cx="105" cy="544" r="32" fill="#22C55E"/>
  <path d="M91 545L101 555L121 531" stroke="white" stroke-width="8" stroke-linecap="round" stroke-linejoin="round"/>
  <rect x="152" y="522" width="118" height="16" rx="8" fill="#166534"/>
  <rect x="152" y="552" width="92" height="12" rx="6" fill="#16A34A"/>
</svg>
