<svg width="360" height="720" viewBox="0 0 360 720" fill="none" xmlns="http://www.w3.org/2000/svg">
  <rect width="360" height="720" rx="44" fill="#020617"/>
  <rect x="18" y="20" width="324" height="680" rx="36" fill="#F8FAFC"/>
  <rect x="46" y="60" width="128" height="28" rx="14" fill="#E0E7FF"/>
  <rect x="46" y="122" width="204" height="20" rx="10" fill="#1E1B4B"/>
  <rect x="46" y="164" width="268" height="60" rx="18" fill="#E0E7FF"/>
  <rect x="70" y="184" width="150" height="15" rx="7.5" fill="#3730A3"/>
  <rect x="46" y="246" width="268" height="60" rx="18" fill="#EEF2FF"/>
  <rect x="70" y="266" width="174" height="15" rx="7.5" fill="#4F46E5"/>
  <rect x="46" y="328" width="268" height="86" rx="22" fill="#C7D2FE"/>
  <rect x="70" y="352" width="166" height="17" rx="8.5" fill="#312E81"/>
  <rect x="246" y="352" width="48" height="26" rx="13" fill="#4F46E5"/>
  <circle cx="281" cy="365" r="17" fill="#FFFFFF"/>
  <rect x="70" y="384" width="124" height="12" rx="6" fill="#4338CA"/>
  <rect x="46" y="438" width="268" height="60" rx="18" fill="#EEF2FF"/>
  <rect x="70" y="458" width="134" height="15" rx="7.5" fill="#4F46E5"/>
  <rect x="78" y="548" width="204" height="76" rx="28" fill="#312E81"/>
  <circle cx="122" cy="586" r="22" fill="#818CF8"/>
  <path d="M112 587L121 596L136 575" stroke="white" stroke-width="6" stroke-linecap="round" stroke-linejoin="round"/>
  <rect x="160" y="574" width="86" height="13" rx="6.5" fill="#E0E7FF"/>
  <rect x="160" y="598" width="62" height="10" rx="5" fill="#A5B4FC"/>
</svg>
