<svg width="360" height="720" viewBox="0 0 360 720" fill="none" xmlns="http://www.w3.org/2000/svg">
  <rect width="360" height="720" rx="44" fill="#0B1120"/>
  <rect x="18" y="20" width="324" height="680" rx="36" fill="#EFF6FF"/>
  <rect x="46" y="58" width="268" height="42" rx="21" fill="#DBEAFE"/>
  <rect x="46" y="124" width="214" height="20" rx="10" fill="#172554"/>
  <rect x="46" y="166" width="268" height="58" rx="18" fill="#BFDBFE"/>
  <rect x="68" y="186" width="160" height="15" rx="7.5" fill="#1D4ED8"/>
  <rect x="46" y="246" width="268" height="58" rx="18" fill="#DBEAFE"/>
  <rect x="68" y="266" width="130" height="15" rx="7.5" fill="#2563EB"/>
  <rect x="46" y="326" width="268" height="84" rx="22" fill="#93C5FD"/>
  <rect x="68" y="350" width="170" height="17" rx="8.5" fill="#1E3A8A"/>
  <rect x="248" y="350" width="46" height="26" rx="13" fill="#2563EB"/>
  <circle cx="281" cy="363" r="17" fill="#FFFFFF"/>
  <rect x="68" y="382" width="116" height="12" rx="6" fill="#1D4ED8"/>
  <rect x="46" y="438" width="268" height="58" rx="18" fill="#DBEAFE"/>
  <rect x="68" y="458" width="156" height="15" rx="7.5" fill="#2563EB"/>
  <rect x="92" y="548" width="176" height="84" rx="28" fill="#1D4ED8"/>
  <rect x="122" y="574" width="116" height="14" rx="7" fill="#FFFFFF"/>
  <rect x="138" y="600" width="84" height="10" rx="5" fill="#BFDBFE"/>
</svg>
