<svg width="360" height="720" viewBox="0 0 360 720" fill="none" xmlns="http://www.w3.org/2000/svg">
  <rect width="360" height="720" rx="44" fill="#111827"/>
  <rect x="18" y="20" width="324" height="680" rx="36" fill="#FFF7ED"/>
  <rect x="44" y="58" width="92" height="24" rx="12" fill="#FB923C"/>
  <rect x="46" y="118" width="220" height="20" rx="10" fill="#431407"/>
  <rect x="46" y="162" width="268" height="64" rx="20" fill="#FED7AA"/>
  <rect x="70" y="184" width="132" height="16" rx="8" fill="#9A3412"/>
  <rect x="46" y="246" width="268" height="64" rx="20" fill="#FFEDD5"/>
  <rect x="70" y="268" width="170" height="16" rx="8" fill="#C2410C"/>
  <rect x="46" y="330" width="268" height="84" rx="22" fill="#FDBA74"/>
  <rect x="70" y="354" width="176" height="17" rx="8.5" fill="#7C2D12"/>
  <rect x="248" y="354" width="44" height="24" rx="12" fill="#EA580C"/>
  <circle cx="280" cy="366" r="16" fill="#FFFFFF"/>
  <rect x="70" y="384" width="128" height="12" rx="6" fill="#C2410C"/>
  <rect x="46" y="438" width="268" height="64" rx="20" fill="#FFEDD5"/>
  <rect x="70" y="460" width="148" height="16" rx="8" fill="#C2410C"/>
  <rect x="72" y="548" width="216" height="72" rx="26" fill="#0F172A"/>
  <rect x="110" y="570" width="140" height="14" rx="7" fill="#FED7AA"/>
  <rect x="130" y="596" width="100" height="10" rx="5" fill="#FDBA74"/>
</svg>
